<?xml version="1.0" encoding="UTF-8" ?>
<!DOCTYPE svg PUBLIC "-//W3C//DTD SVG 1.1//EN" "http://www.w3.org/Graphics/SVG/1.1/DTD/svg11.dtd">
<svg width="711pt" height="829pt" viewBox="0 0 711 829" version="1.1" xmlns="http://www.w3.org/2000/svg">
<g id="#f7f8f6fd">
<path fill="#f7f8f6" opacity="1.00" d=" M 355.37 8.51 C 359.91 6.73 365.30 7.85 368.87 11.14 C 374.95 16.65 377.44 25.60 375.78 33.55 C 375.23 36.78 375.84 40.24 374.27 43.26 C 370.44 51.90 357.95 56.01 350.40 49.70 C 346.67 46.99 346.07 42.18 345.14 38.00 C 343.89 31.36 343.53 24.24 346.10 17.85 C 347.76 13.67 350.96 9.89 355.37 8.51 M 355.08 16.00 C 354.41 25.44 354.73 34.90 355.04 44.35 C 358.37 43.43 361.66 42.30 364.87 41.00 C 365.94 35.22 366.61 29.23 365.60 23.40 C 364.48 18.55 359.66 16.26 355.08 16.00 Z" />
<path fill="#f7f8f6" opacity="1.00" d=" M 400.39 26.63 C 411.02 23.29 423.09 35.51 418.60 46.03 C 415.54 51.82 410.97 56.71 406.01 60.94 C 402.72 63.48 399.47 66.79 395.09 67.09 C 384.78 68.16 375.02 56.12 379.73 46.47 C 384.78 38.33 391.86 31.04 400.39 26.63 M 392.06 44.95 C 389.81 47.79 387.57 51.25 388.04 55.05 C 390.97 57.98 395.98 57.47 398.98 54.84 C 403.93 50.90 407.42 45.45 412.20 41.29 C 409.42 39.42 406.93 37.13 404.05 35.39 C 399.59 37.84 395.52 41.19 392.06 44.95 Z" />
<path fill="#f7f8f6" opacity="1.00" d=" M 310.19 27.22 C 314.46 25.42 319.37 26.44 323.21 28.80 C 329.11 32.35 333.50 37.79 337.77 43.07 C 339.42 45.05 340.84 47.33 341.13 49.95 C 342.36 59.24 333.23 68.31 323.94 67.03 C 319.72 66.39 316.47 63.35 313.23 60.81 C 307.74 56.06 302.34 50.31 300.76 42.99 C 299.26 36.27 304.04 29.57 310.19 27.22 M 314.17 34.98 C 312.33 36.62 310.76 38.55 309.06 40.33 C 312.39 46.75 316.64 53.74 323.77 56.33 C 327.66 57.93 331.46 55.13 334.18 52.61 C 329.15 46.78 323.95 40.93 317.54 36.55 C 316.47 35.95 315.48 34.91 314.17 34.98 Z" />
<path fill="#f7f8f6" opacity="1.00" d=" M 332.61 70.60 C 341.41 62.19 354.13 58.22 366.14 60.32 C 377.61 62.06 387.41 69.66 394.06 78.88 C 402.71 91.08 406.00 106.05 408.22 120.59 C 439.58 129.47 471.41 142.50 493.83 167.07 C 500.37 173.58 504.16 183.50 501.43 192.59 C 499.29 199.74 492.48 203.92 486.26 207.17 C 470.97 214.59 453.59 214.42 437.08 216.54 C 453.40 245.73 468.37 275.63 483.55 305.42 C 487.49 313.55 490.19 322.81 488.50 331.89 C 487.31 338.37 482.71 344.14 476.44 346.35 C 462.92 351.78 448.12 348.42 434.01 349.22 C 420.06 348.45 405.33 351.67 392.08 345.96 C 387.01 344.03 383.65 339.61 380.34 335.56 C 372.46 325.35 366.85 313.64 359.57 303.03 C 351.38 314.27 346.65 327.80 337.26 338.22 C 332.10 343.98 324.91 348.10 317.11 348.66 C 299.76 349.93 282.35 349.13 264.98 349.31 C 255.74 349.29 245.66 348.72 238.04 342.86 C 231.47 337.91 229.02 328.98 230.59 321.10 C 232.51 311.13 237.52 302.12 242.15 293.19 C 255.48 267.63 268.62 241.96 282.07 216.46 C 266.14 214.43 249.49 214.80 234.50 208.32 C 228.99 205.71 223.13 202.65 219.97 197.18 C 216.30 190.76 217.14 182.72 220.04 176.17 C 223.23 168.57 229.56 163.01 235.53 157.60 C 257.04 138.84 284.11 128.01 311.34 120.54 C 313.83 102.56 318.49 83.16 332.61 70.60 M 340.23 76.22 C 333.77 81.71 328.77 88.99 326.25 97.11 C 323.04 107.14 321.92 117.69 318.72 127.73 C 293.38 135.42 267.62 144.17 246.44 160.58 C 240.73 165.12 235.00 169.87 230.93 176.00 C 227.94 180.25 225.93 185.55 227.30 190.76 C 229.12 195.78 234.38 198.06 238.92 200.03 C 256.02 206.94 275.05 203.93 292.55 209.20 C 292.45 222.09 284.04 232.50 278.39 243.43 C 266.36 268.18 252.49 292.00 241.12 317.07 C 238.76 323.58 238.86 332.69 245.35 336.82 C 250.41 339.55 256.39 338.74 261.90 339.65 C 276.93 340.39 291.98 339.69 307.02 339.85 C 314.89 339.40 324.39 339.52 329.77 332.69 C 340.91 317.94 348.36 300.70 360.25 286.47 C 370.89 302.04 379.21 319.17 390.97 333.99 C 397.05 340.57 406.89 339.47 415.01 339.87 C 432.67 339.51 450.41 340.90 468.01 338.95 C 471.82 338.83 475.94 337.26 477.83 333.74 C 480.86 328.31 479.85 321.71 477.81 316.13 C 469.36 295.63 457.52 276.79 448.20 256.70 C 440.84 241.19 429.45 227.33 425.74 210.27 C 443.36 203.42 463.15 207.05 480.60 199.66 C 485.25 197.37 490.72 194.84 492.61 189.62 C 494.05 184.33 491.49 178.90 488.26 174.81 C 482.32 167.99 475.44 162.01 468.01 156.88 C 447.23 142.47 422.90 134.71 399.04 127.12 C 398.94 123.37 398.18 119.69 397.78 115.97 L 398.30 115.19 L 397.91 114.22 L 397.03 114.08 C 397.16 109.75 395.57 105.59 394.55 101.44 C 391.12 89.32 383.75 77.68 372.27 71.85 C 361.91 66.79 349.04 69.11 340.23 76.22 Z" />
<path fill="#f7f8f6" opacity="1.00" d=" M 8.96 190.95 C 13.52 189.71 18.31 190.09 22.98 190.00 C 81.02 190.49 139.08 188.66 197.11 190.57 C 199.27 190.66 201.01 192.15 202.85 193.12 C 216.05 201.26 225.70 213.69 235.93 225.09 C 240.51 230.64 235.65 239.41 229.00 240.26 C 179.51 240.45 130.00 240.27 80.50 240.36 C 104.12 283.92 129.03 326.77 152.80 370.25 C 155.44 375.47 154.49 381.81 151.59 386.73 C 157.33 392.58 158.68 401.09 158.41 408.97 C 157.71 436.34 158.93 463.74 157.84 491.11 C 157.95 498.29 150.87 503.67 144.06 503.56 C 132.38 503.53 120.64 504.56 109.02 502.95 C 103.63 502.48 99.75 497.51 98.59 492.53 C 96.63 483.95 98.85 475.17 98.38 466.50 C 90.95 471.27 81.48 469.45 74.34 465.07 C 74.40 474.39 75.50 483.80 73.91 493.06 C 73.38 497.32 70.07 500.88 66.11 502.32 C 61.28 504.16 56.00 503.83 50.93 503.74 C 43.33 503.45 35.69 504.36 28.13 503.33 C 24.14 502.71 19.89 501.08 17.73 497.44 C 15.92 494.63 16.04 491.19 15.97 488.00 C 15.14 458.69 16.04 429.37 15.84 400.06 C 15.63 394.67 19.12 389.47 24.05 387.41 C 27.17 386.03 30.65 386.47 33.96 386.28 C 44.48 386.14 55.18 385.21 65.54 387.48 C 73.81 392.52 79.84 400.34 86.63 407.09 C 93.28 400.54 99.57 393.64 106.33 387.20 C 102.18 381.72 98.29 376.02 95.01 369.98 C 66.33 317.79 37.42 265.72 8.11 213.88 C 5.53 209.55 1.82 205.32 1.93 199.98 C 1.94 195.82 4.96 192.01 8.96 190.95 M 11.08 199.97 C 44.50 259.09 77.42 318.49 110.10 378.02 C 122.12 377.88 134.14 378.14 146.16 378.16 C 120.08 328.61 90.62 280.91 65.35 230.95 C 119.50 230.58 173.67 231.16 227.82 230.67 C 228.74 229.31 226.43 228.24 225.79 227.20 C 216.45 217.61 208.07 206.45 196.01 200.09 C 177.66 200.11 159.32 198.93 140.96 199.11 C 97.67 198.75 54.37 199.92 11.08 199.97 M 25.35 396.16 C 25.18 428.71 25.02 461.27 25.25 493.82 C 38.46 494.15 51.68 494.02 64.88 493.90 C 65.11 477.51 64.95 461.11 65.00 444.72 C 72.46 450.22 79.78 455.92 87.25 461.41 C 94.20 456.11 100.58 450.07 107.60 444.87 C 107.57 461.23 107.39 477.61 107.98 493.97 C 121.49 493.90 135.02 494.24 148.53 493.79 C 148.87 461.25 148.80 428.71 148.57 396.17 C 137.03 396.12 125.50 394.65 114.00 396.15 L 113.21 395.63 L 112.23 396.03 L 112.08 396.91 C 109.07 396.52 107.32 399.58 105.25 401.24 C 98.74 407.15 93.51 414.38 86.99 420.22 C 78.69 412.36 70.73 404.13 62.70 396.00 C 50.25 396.01 37.79 395.77 25.35 396.16 Z" />
<path fill="#f7f8f6" opacity="1.00" d=" M 508.27 193.23 C 513.61 190.08 519.95 189.34 526.02 190.02 C 583.73 190.18 641.46 188.66 699.15 190.37 C 703.92 191.35 708.00 195.99 707.48 201.00 C 707.07 203.66 705.28 205.81 704.15 208.19 C 675.02 263.54 643.86 317.78 613.51 372.47 C 610.46 377.29 608.83 383.71 603.11 386.15 C 593.81 390.12 583.56 386.98 573.85 387.44 C 575.04 391.08 577.65 394.18 578.48 397.93 C 579.93 419.75 578.65 441.63 579.08 463.48 C 586.72 464.13 594.52 462.35 602.06 464.20 C 606.71 465.23 610.94 468.97 611.60 473.83 C 612.79 481.04 613.81 488.83 610.81 495.74 C 609.89 497.56 609.02 499.77 606.97 500.56 C 601.85 502.91 596.27 503.89 590.87 505.38 C 587.68 506.33 584.32 506.27 581.04 506.38 C 581.31 505.60 581.83 504.05 582.10 503.28 C 565.45 503.68 548.78 504.08 532.14 503.37 C 525.51 502.99 520.02 496.65 520.30 490.07 C 520.41 459.45 519.67 428.83 520.69 398.22 C 520.95 392.66 525.46 387.94 530.82 386.85 C 539.79 384.73 548.99 387.03 558.07 386.58 C 557.04 383.30 555.82 380.09 554.62 376.88 C 577.90 330.42 604.90 285.97 629.72 240.34 C 581.11 239.92 532.48 241.11 483.89 239.69 C 480.67 239.68 477.38 237.89 476.22 234.78 C 474.19 229.48 476.33 223.19 480.59 219.62 C 489.99 211.02 497.00 199.66 508.27 193.23 M 518.98 199.99 C 516.00 199.84 513.46 201.63 510.98 203.01 C 502.69 208.16 496.70 216.07 490.26 223.24 C 488.19 225.63 485.73 227.70 484.00 230.37 C 537.72 231.45 591.46 230.48 645.20 230.98 C 619.22 280.51 589.93 328.23 564.39 377.98 C 576.18 377.98 587.98 378.52 599.76 378.06 C 632.54 318.71 666.21 259.85 698.06 199.98 C 661.05 198.84 624.02 198.94 586.99 199.04 C 564.31 198.87 541.66 200.24 518.98 199.99 M 529.74 396.02 C 529.44 428.64 529.39 461.27 529.77 493.89 C 554.13 493.90 578.51 494.42 602.86 493.55 C 603.07 486.80 602.96 480.04 602.68 473.29 C 591.67 472.78 580.64 473.09 569.63 473.00 C 569.58 447.44 569.70 421.89 569.57 396.33 C 556.31 395.67 543.02 396.13 529.74 396.02 Z" />
<path fill="#f7f8f6" opacity="1.00" d=" M 174.08 387.37 C 179.88 385.50 186.07 386.43 192.05 386.14 C 212.69 386.79 233.37 385.07 253.97 386.92 C 258.93 387.01 262.38 391.62 264.25 395.76 C 268.28 406.13 265.39 418.95 257.13 426.47 C 258.94 436.20 261.33 446.82 257.26 456.29 C 252.87 463.46 243.40 459.73 236.67 461.57 C 243.31 462.19 250.28 461.96 256.51 464.70 C 260.19 466.40 263.48 469.74 263.94 473.92 C 264.86 480.72 265.84 487.90 263.56 494.54 C 262.06 499.01 257.94 502.86 253.07 503.00 C 232.41 504.08 211.72 503.46 191.04 503.26 C 184.53 503.25 178.99 497.26 178.80 490.88 C 178.46 466.77 178.75 442.66 178.61 418.54 C 174.55 413.63 169.30 409.51 166.63 403.59 C 163.68 397.38 167.69 389.41 174.08 387.37 M 173.17 396.42 C 177.59 403.07 182.83 409.12 187.98 415.22 C 188.15 441.40 187.79 467.59 188.19 493.77 C 210.45 494.14 232.71 494.06 254.97 493.82 C 255.06 486.93 254.90 480.03 254.72 473.14 C 245.81 472.83 236.89 473.08 227.98 473.00 C 227.97 466.34 227.96 459.67 227.98 453.01 C 235.34 453.04 242.70 452.83 250.02 452.09 C 249.95 445.53 249.98 438.94 249.36 432.40 C 242.46 431.45 235.09 432.30 228.01 431.94 C 227.99 426.92 228.00 421.91 228.00 416.91 C 236.99 416.90 245.97 416.90 254.96 416.90 C 255.48 409.94 255.93 402.97 255.82 395.99 C 235.20 396.24 214.57 395.20 193.95 395.93 C 187.03 396.10 180.08 395.83 173.17 396.42 Z" />
<path fill="#f7f8f6" opacity="1.00" d=" M 281.81 387.22 C 307.15 384.82 332.63 386.98 358.03 386.09 C 362.41 386.04 366.70 388.29 369.21 391.87 C 372.71 396.79 373.60 403.13 372.99 409.02 C 372.30 415.54 369.65 422.23 364.29 426.29 C 366.02 436.47 369.36 448.09 363.35 457.51 C 358.53 463.37 350.21 459.87 343.81 460.92 C 350.08 462.49 356.83 461.86 362.89 464.43 C 366.90 466.05 370.68 469.48 371.12 474.00 C 372.04 480.98 373.02 488.41 370.44 495.16 C 368.88 499.52 364.66 502.83 360.00 503.01 C 339.69 504.13 319.36 503.39 299.04 503.36 C 292.35 503.45 286.23 497.68 285.87 491.02 C 285.61 467.05 285.82 443.07 285.80 419.10 C 280.12 413.62 274.42 407.12 273.26 399.03 C 272.33 393.55 276.73 388.54 281.81 387.22 M 280.83 396.18 C 284.54 402.59 289.10 408.48 294.03 413.99 C 294.82 414.80 295.16 415.78 295.06 416.94 C 295.39 442.54 294.90 468.15 295.39 493.76 C 317.68 494.15 339.99 494.13 362.28 493.71 C 361.92 486.84 362.04 479.97 361.94 473.10 C 352.96 472.92 343.98 473.04 334.99 473.00 C 334.99 466.33 335.00 459.66 335.00 453.00 C 342.22 452.87 349.46 453.14 356.68 452.75 C 356.87 445.89 357.04 439.03 356.93 432.16 C 349.66 431.87 342.37 432.14 335.10 431.77 C 335.07 426.82 335.28 421.88 335.19 416.94 C 344.08 416.82 352.99 417.01 361.88 416.69 L 362.36 416.29 C 362.93 409.57 362.90 402.79 362.96 396.05 C 348.95 396.04 334.95 395.84 320.95 395.67 C 307.58 395.93 294.20 395.89 280.83 396.18 Z" />
<path fill="#f7f8f6" opacity="1.00" d=" M 379.74 398.91 C 379.96 392.19 386.38 386.64 392.96 386.42 C 417.97 386.47 443.00 386.03 468.01 386.54 C 477.86 386.38 487.74 388.97 496.42 393.62 C 503.19 397.19 509.01 403.92 508.88 411.95 C 508.66 422.98 510.07 434.11 508.16 445.07 C 507.48 452.59 500.56 457.65 494.00 460.09 C 480.81 464.52 466.74 461.63 453.15 462.54 C 452.29 473.38 455.26 484.71 451.35 495.18 C 449.29 500.94 442.93 504.02 437.05 503.41 C 426.75 502.53 416.36 505.58 406.13 503.40 C 401.03 502.38 396.30 498.85 394.57 493.85 C 392.51 468.81 394.60 443.63 393.59 418.57 C 388.60 412.38 380.40 407.60 379.74 398.91 M 387.97 397.55 C 392.67 403.56 397.77 409.28 402.98 414.85 C 403.54 441.17 402.91 467.50 403.45 493.82 C 416.63 494.22 429.83 493.91 443.02 493.97 C 443.38 480.37 443.62 466.77 443.32 453.17 C 458.84 452.38 474.49 454.13 489.91 451.73 C 493.59 450.85 497.39 448.64 498.80 444.96 C 500.10 432.29 500.58 419.32 498.36 406.76 C 489.66 398.30 476.84 395.47 465.02 395.94 C 440.34 396.24 415.64 395.49 390.97 396.38 C 390.14 396.69 387.54 396.01 387.97 397.55 Z" />
<path fill="#f7f8f6" opacity="1.00" d=" M 604.60 398.90 C 604.73 391.68 611.94 385.98 618.94 386.24 C 643.78 386.47 668.64 385.39 693.45 386.80 C 699.06 387.93 703.07 393.09 704.37 398.47 C 706.68 408.38 703.73 419.57 696.30 426.65 C 698.19 435.45 699.90 444.75 697.47 453.62 C 696.61 456.96 693.87 459.60 690.53 460.43 C 685.40 461.70 680.05 461.26 674.82 461.41 C 681.17 462.88 687.92 461.76 694.11 464.08 C 698.48 465.54 702.48 469.18 703.01 473.95 C 704.12 480.84 705.07 488.21 702.55 494.92 C 700.95 499.27 696.83 502.85 692.07 502.96 C 672.07 504.23 652.02 503.30 632.00 503.40 C 625.15 503.70 617.93 498.29 618.03 491.08 C 617.13 466.90 617.98 442.70 617.60 418.51 C 612.82 412.36 605.32 407.28 604.60 398.90 M 612.26 396.54 C 616.75 403.08 622.00 409.06 627.00 415.21 C 627.27 441.38 626.89 467.56 627.30 493.73 C 639.19 494.18 651.09 493.91 662.99 494.00 C 673.45 493.89 683.95 494.26 694.39 493.33 C 693.87 486.60 694.08 479.85 693.90 473.11 C 684.93 472.92 675.95 473.03 666.98 473.00 C 666.95 466.33 667.00 459.66 667.00 452.99 C 674.28 452.95 681.57 452.93 688.85 452.82 C 688.77 448.19 689.08 443.57 689.00 438.95 C 689.04 436.58 688.14 434.25 686.64 432.43 C 680.17 431.70 673.60 431.81 667.09 431.50 C 666.91 426.65 667.03 421.80 667.00 416.95 C 676.18 416.89 685.37 416.91 694.55 416.62 C 694.89 409.78 694.93 402.93 694.94 396.09 C 673.99 396.16 653.03 395.20 632.08 395.98 C 625.47 396.03 618.85 395.90 612.26 396.54 Z" />
<path fill="#f7f8f6" opacity="1.00" d=" M 443.36 417.10 C 448.25 416.85 453.15 417.01 458.04 416.97 C 458.19 421.82 458.38 426.67 458.76 431.51 C 453.63 431.84 448.49 432.17 443.36 431.89 C 443.48 426.96 443.48 422.03 443.36 417.10 Z" />
<path fill="#f7f8f6" opacity="1.00" d=" M 184.39 509.47 C 197.78 506.80 211.53 508.28 225.07 508.32 C 233.39 510.30 235.58 519.80 239.96 526.01 C 277.54 594.64 315.51 663.06 354.03 731.17 C 354.44 731.82 354.87 732.48 355.32 733.13 C 395.35 660.63 436.06 588.48 475.74 515.79 C 478.92 511.08 484.47 508.58 489.99 507.95 C 500.33 506.64 510.68 508.99 521.05 508.54 C 525.39 508.15 529.40 511.58 529.88 515.87 C 531.01 521.29 528.07 526.19 525.26 530.52 C 471.38 627.73 417.12 724.75 362.97 821.80 C 359.51 827.05 350.33 827.48 347.21 821.67 C 294.88 728.20 242.73 634.64 190.60 541.07 C 187.12 534.46 182.82 528.18 180.50 521.03 C 179.08 516.87 180.35 511.64 184.39 509.47 M 486.30 517.24 C 442.17 594.94 399.71 673.58 355.61 751.31 C 351.35 744.86 347.69 738.03 343.73 731.40 C 321.45 693.05 299.88 654.28 278.51 615.42 C 260.68 582.89 242.59 550.50 224.77 517.96 C 212.78 517.48 200.77 517.58 188.77 517.72 C 243.20 617.55 299.53 716.33 354.54 815.84 C 354.77 815.82 355.21 815.79 355.44 815.77 C 410.90 716.91 466.18 617.92 520.97 518.67 C 520.91 518.45 520.77 518.01 520.71 517.78 C 509.24 517.71 497.77 517.09 486.30 517.24 Z" />
<path fill="#f7f8f6" opacity="1.00" d=" M 353.92 529.17 C 368.57 522.00 385.36 524.15 400.98 525.89 C 408.36 526.36 414.96 531.47 417.91 538.15 C 422.08 547.51 420.78 558.98 414.96 567.37 C 417.51 574.50 422.81 580.50 424.21 588.07 C 425.18 592.23 422.82 596.77 418.93 598.46 C 409.03 601.08 398.52 599.89 388.82 596.98 C 379.01 599.60 368.18 601.60 358.47 597.46 C 356.71 596.91 355.04 595.14 353.10 596.06 C 337.71 600.71 321.40 600.25 305.55 599.16 C 300.83 599.08 297.05 594.64 296.99 590.07 C 296.56 571.01 296.37 551.93 297.19 532.88 C 297.53 528.06 302.48 524.69 307.07 524.78 C 322.72 524.62 339.14 522.76 353.92 529.17 M 306.23 534.17 C 305.97 552.77 306.16 571.37 306.13 589.98 C 316.10 589.94 326.08 590.16 336.04 589.89 C 341.15 588.90 347.37 589.43 351.05 585.05 C 354.83 579.98 354.82 573.23 355.18 567.18 C 352.66 565.41 350.15 563.64 347.59 561.93 C 349.51 556.78 352.31 551.69 352.06 546.04 C 352.33 540.80 348.10 536.04 343.02 535.23 C 330.87 533.16 318.49 534.15 306.23 534.17 M 363.37 534.19 C 363.22 552.90 363.13 571.62 363.74 590.32 C 369.13 589.81 374.55 590.13 379.95 589.87 C 380.05 581.82 379.80 573.75 380.80 565.74 C 388.29 572.23 392.65 581.35 397.06 590.03 C 403.31 589.95 409.56 590.05 415.81 589.96 C 411.64 581.65 406.75 573.73 401.96 565.77 C 407.75 561.47 411.65 554.26 411.01 546.95 C 410.53 541.74 406.83 536.76 401.64 535.47 C 389.03 533.13 376.13 534.11 363.37 534.19 Z" />
<path fill="#f7f8f6" opacity="1.00" d=" M 323.22 545.05 C 327.26 545.42 331.52 545.98 335.08 548.04 C 337.10 549.27 337.03 551.74 337.08 553.82 C 332.03 554.67 326.98 555.53 321.90 556.12 C 322.73 552.48 323.12 548.77 323.22 545.05 Z" />
<path fill="#f7f8f6" opacity="1.00" d=" M 380.55 544.42 C 386.09 545.67 393.12 546.16 396.31 551.59 C 391.78 555.09 386.26 556.88 380.76 558.16 C 380.71 553.58 380.68 549.00 380.55 544.42 Z" />
<path fill="#f7f8f6" opacity="1.00" d=" M 324.05 565.70 C 328.16 566.48 332.63 566.54 336.33 568.69 C 338.91 570.19 338.95 573.49 338.03 576.00 C 333.07 577.31 327.92 577.67 322.96 578.98 C 322.83 574.52 323.32 570.09 324.05 565.70 Z" />
</g>
<g id="#8dc53fff">
<path fill="#8dc53f" opacity="1.00" d=" M 355.08 16.00 C 359.66 16.26 364.48 18.55 365.60 23.40 C 366.61 29.23 365.94 35.22 364.87 41.00 C 361.66 42.30 358.37 43.43 355.04 44.35 C 354.73 34.90 354.41 25.44 355.08 16.00 Z" />
<path fill="#8dc53f" opacity="1.00" d=" M 314.17 34.98 C 315.48 34.91 316.47 35.95 317.54 36.55 C 323.95 40.93 329.15 46.78 334.18 52.61 C 331.46 55.13 327.66 57.93 323.77 56.33 C 316.64 53.74 312.39 46.75 309.06 40.33 C 310.76 38.55 312.33 36.62 314.17 34.98 Z" />
<path fill="#8dc53f" opacity="1.00" d=" M 392.06 44.95 C 395.52 41.19 399.59 37.84 404.05 35.39 C 406.93 37.13 409.42 39.42 412.20 41.29 C 407.42 45.45 403.93 50.90 398.98 54.84 C 395.98 57.47 390.97 57.98 388.04 55.05 C 387.57 51.25 389.81 47.79 392.06 44.95 Z" />
<path fill="#8dc53f" opacity="1.00" d=" M 397.03 114.08 L 397.91 114.22 L 398.30 115.19 L 397.78 115.97 C 397.59 115.50 397.22 114.55 397.03 114.08 Z" />
<path fill="#8dc53f" opacity="1.00" d=" M 11.08 199.97 C 54.37 199.92 97.67 198.75 140.96 199.11 C 159.32 198.93 177.66 200.11 196.01 200.09 C 208.07 206.45 216.45 217.61 225.79 227.20 C 226.43 228.24 228.74 229.31 227.82 230.67 C 173.67 231.16 119.50 230.58 65.35 230.95 C 90.62 280.91 120.08 328.61 146.16 378.16 C 134.14 378.14 122.12 377.88 110.10 378.02 C 77.42 318.49 44.50 259.09 11.08 199.97 Z" />
<path fill="#8dc53f" opacity="1.00" d=" M 518.98 199.99 C 541.66 200.24 564.31 198.87 586.99 199.04 C 624.02 198.94 661.05 198.84 698.06 199.98 C 666.21 259.85 632.54 318.71 599.76 378.06 C 587.98 378.52 576.18 377.98 564.39 377.98 C 589.93 328.23 619.22 280.51 645.20 230.98 C 591.46 230.48 537.72 231.45 484.00 230.37 C 485.73 227.70 488.19 225.63 490.26 223.24 C 496.70 216.07 502.69 208.16 510.98 203.01 C 513.46 201.63 516.00 199.84 518.98 199.99 Z" />
<path fill="#8dc53f" opacity="1.00" d=" M 112.23 396.03 L 113.21 395.63 L 114.00 396.15 C 113.52 396.34 112.56 396.72 112.08 396.91 L 112.23 396.03 Z" />
<path fill="#8dc53f" opacity="1.00" d=" M 486.30 517.24 C 497.77 517.09 509.24 517.71 520.71 517.78 C 520.77 518.01 520.91 518.45 520.97 518.67 C 466.18 617.92 410.90 716.91 355.44 815.77 C 355.21 815.79 354.77 815.82 354.54 815.84 C 299.53 716.33 243.20 617.55 188.77 517.72 C 200.77 517.58 212.78 517.48 224.77 517.96 C 242.59 550.50 260.68 582.89 278.51 615.42 C 299.88 654.28 321.45 693.05 343.73 731.40 C 347.69 738.03 351.35 744.86 355.61 751.31 C 399.71 673.58 442.17 594.94 486.30 517.24 Z" />
<path fill="#8dc53f" opacity="1.00" d=" M 306.23 534.17 C 318.49 534.15 330.87 533.16 343.02 535.23 C 348.10 536.04 352.33 540.80 352.06 546.04 C 352.31 551.69 349.51 556.78 347.59 561.93 C 350.15 563.64 352.66 565.41 355.18 567.18 C 354.82 573.23 354.83 579.98 351.05 585.05 C 347.37 589.43 341.15 588.90 336.04 589.89 C 326.08 590.16 316.10 589.94 306.13 589.98 C 306.16 571.37 305.97 552.77 306.23 534.17 M 323.22 545.05 C 323.12 548.77 322.73 552.48 321.90 556.12 C 326.98 555.53 332.03 554.67 337.08 553.82 C 337.03 551.74 337.10 549.27 335.08 548.04 C 331.52 545.98 327.26 545.42 323.22 545.05 M 324.05 565.70 C 323.32 570.09 322.83 574.52 322.96 578.98 C 327.92 577.67 333.07 577.31 338.03 576.00 C 338.95 573.49 338.91 570.19 336.33 568.69 C 332.63 566.54 328.16 566.48 324.05 565.70 Z" />
<path fill="#8dc53f" opacity="1.00" d=" M 363.37 534.19 C 376.13 534.11 389.03 533.13 401.64 535.47 C 406.83 536.76 410.53 541.74 411.01 546.95 C 411.65 554.26 407.75 561.47 401.96 565.77 C 406.75 573.73 411.64 581.65 415.81 589.96 C 409.56 590.05 403.31 589.95 397.06 590.03 C 392.65 581.35 388.29 572.23 380.80 565.74 C 379.80 573.75 380.05 581.82 379.95 589.87 C 374.55 590.13 369.13 589.81 363.74 590.32 C 363.13 571.62 363.22 552.90 363.37 534.19 M 380.55 544.42 C 380.68 549.00 380.71 553.58 380.76 558.16 C 386.26 556.88 391.78 555.09 396.31 551.59 C 393.12 546.16 386.09 545.67 380.55 544.42 Z" />
</g>
<g id="#383737ff">
<path fill="#383737" opacity="1.00" d=" M 340.23 76.22 C 349.04 69.11 361.91 66.79 372.27 71.85 C 383.75 77.68 391.12 89.32 394.55 101.44 C 395.57 105.59 397.16 109.75 397.03 114.08 C 397.22 114.55 397.59 115.50 397.78 115.97 C 398.18 119.69 398.94 123.37 399.04 127.12 C 422.90 134.71 447.23 142.47 468.01 156.88 C 475.44 162.01 482.32 167.99 488.26 174.81 C 491.49 178.90 494.05 184.33 492.61 189.62 C 490.72 194.84 485.25 197.37 480.60 199.66 C 463.15 207.05 443.36 203.42 425.74 210.27 C 429.45 227.33 440.84 241.19 448.20 256.70 C 457.52 276.79 469.36 295.63 477.81 316.13 C 479.85 321.71 480.86 328.31 477.83 333.74 C 475.94 337.26 471.82 338.83 468.01 338.95 C 450.41 340.90 432.67 339.51 415.01 339.87 C 406.89 339.47 397.05 340.57 390.97 333.99 C 379.21 319.17 370.89 302.04 360.25 286.47 C 348.36 300.70 340.91 317.94 329.77 332.69 C 324.39 339.52 314.89 339.40 307.02 339.85 C 291.98 339.69 276.93 340.39 261.90 339.65 C 256.39 338.74 250.41 339.55 245.35 336.82 C 238.86 332.69 238.76 323.58 241.12 317.07 C 252.49 292.00 266.36 268.18 278.39 243.43 C 284.04 232.50 292.45 222.09 292.55 209.20 C 275.05 203.93 256.02 206.94 238.92 200.03 C 234.38 198.06 229.12 195.78 227.30 190.76 C 225.93 185.55 227.94 180.25 230.93 176.00 C 235.00 169.87 240.73 165.12 246.44 160.58 C 267.62 144.17 293.38 135.42 318.72 127.73 C 321.92 117.69 323.04 107.14 326.25 97.11 C 328.77 88.99 333.77 81.71 340.23 76.22 Z" />
<path fill="#383737" opacity="1.00" d=" M 25.35 396.16 C 37.79 395.77 50.25 396.01 62.70 396.00 C 70.73 404.13 78.69 412.36 86.99 420.22 C 93.51 414.38 98.74 407.15 105.25 401.24 C 107.32 399.58 109.07 396.52 112.08 396.91 C 112.56 396.72 113.52 396.34 114.00 396.15 C 125.50 394.65 137.03 396.12 148.57 396.17 C 148.80 428.71 148.87 461.25 148.53 493.79 C 135.02 494.24 121.49 493.90 107.98 493.97 C 107.39 477.61 107.57 461.23 107.60 444.87 C 100.58 450.07 94.20 456.11 87.25 461.41 C 79.78 455.92 72.46 450.22 65.00 444.72 C 64.95 461.11 65.11 477.51 64.88 493.90 C 51.68 494.02 38.46 494.15 25.25 493.82 C 25.02 461.27 25.18 428.71 25.35 396.16 Z" />
<path fill="#383737" opacity="1.00" d=" M 173.17 396.42 C 180.08 395.83 187.03 396.10 193.95 395.93 C 214.57 395.20 235.20 396.24 255.82 395.99 C 255.93 402.97 255.48 409.94 254.96 416.90 C 245.97 416.90 236.99 416.90 228.00 416.91 C 228.00 421.91 227.99 426.92 228.01 431.94 C 235.09 432.30 242.46 431.45 249.36 432.40 C 249.98 438.94 249.95 445.53 250.02 452.09 C 242.70 452.83 235.34 453.04 227.98 453.01 C 227.96 459.67 227.97 466.34 227.98 473.00 C 236.89 473.08 245.81 472.83 254.72 473.14 C 254.90 480.03 255.06 486.93 254.97 493.82 C 232.71 494.06 210.45 494.14 188.19 493.77 C 187.79 467.59 188.15 441.40 187.98 415.22 C 182.83 409.12 177.59 403.07 173.17 396.42 Z" />
<path fill="#383737" opacity="1.00" d=" M 280.83 396.18 C 294.20 395.89 307.58 395.93 320.95 395.67 C 334.95 395.84 348.95 396.04 362.96 396.05 C 362.90 402.79 362.93 409.57 362.36 416.29 L 361.88 416.69 C 352.99 417.01 344.08 416.82 335.19 416.94 C 335.28 421.88 335.07 426.82 335.10 431.77 C 342.37 432.14 349.66 431.87 356.93 432.16 C 357.04 439.03 356.87 445.89 356.68 452.75 C 349.46 453.14 342.22 452.87 335.00 453.00 C 335.00 459.66 334.99 466.33 334.99 473.00 C 343.98 473.04 352.96 472.92 361.94 473.10 C 362.04 479.97 361.92 486.84 362.28 493.71 C 339.99 494.13 317.68 494.15 295.39 493.76 C 294.90 468.15 295.39 442.54 295.06 416.94 C 295.16 415.78 294.82 414.80 294.03 413.99 C 289.10 408.48 284.54 402.59 280.83 396.18 Z" />
<path fill="#383737" opacity="1.00" d=" M 387.97 397.55 C 387.54 396.01 390.14 396.69 390.97 396.38 C 415.64 395.49 440.34 396.24 465.02 395.94 C 476.84 395.47 489.66 398.30 498.36 406.76 C 500.58 419.32 500.10 432.29 498.80 444.96 C 497.39 448.64 493.59 450.85 489.91 451.73 C 474.49 454.13 458.84 452.38 443.32 453.17 C 443.62 466.77 443.38 480.37 443.02 493.97 C 429.83 493.91 416.63 494.22 403.45 493.82 C 402.91 467.50 403.54 441.17 402.98 414.85 C 397.77 409.28 392.67 403.56 387.97 397.55 M 443.36 417.10 C 443.48 422.03 443.48 426.96 443.36 431.89 C 448.49 432.17 453.63 431.84 458.76 431.51 C 458.38 426.67 458.19 421.82 458.04 416.97 C 453.15 417.01 448.25 416.85 443.36 417.10 Z" />
<path fill="#383737" opacity="1.00" d=" M 529.74 396.02 C 543.02 396.13 556.31 395.67 569.57 396.33 C 569.70 421.89 569.58 447.44 569.63 473.00 C 580.64 473.09 591.67 472.78 602.68 473.29 C 602.96 480.04 603.07 486.80 602.86 493.55 C 578.51 494.42 554.13 493.90 529.77 493.89 C 529.39 461.27 529.44 428.64 529.74 396.02 Z" />
<path fill="#383737" opacity="1.00" d=" M 612.26 396.54 C 618.85 395.90 625.47 396.03 632.08 395.98 C 653.03 395.20 673.99 396.16 694.94 396.09 C 694.93 402.93 694.89 409.78 694.55 416.62 C 685.37 416.91 676.18 416.89 667.00 416.95 C 667.03 421.80 666.91 426.65 667.09 431.50 C 673.60 431.81 680.17 431.70 686.64 432.43 C 688.14 434.25 689.04 436.58 689.00 438.95 C 689.08 443.57 688.77 448.19 688.85 452.82 C 681.57 452.93 674.28 452.95 667.00 452.99 C 667.00 459.66 666.95 466.33 666.98 473.00 C 675.95 473.03 684.93 472.92 693.90 473.11 C 694.08 479.85 693.87 486.60 694.39 493.33 C 683.95 494.26 673.45 493.89 662.99 494.00 C 651.09 493.91 639.19 494.18 627.30 493.73 C 626.89 467.56 627.27 441.38 627.00 415.21 C 622.00 409.06 616.75 403.08 612.26 396.54 Z" />
</g>
</svg>
